<svg width="22" height="14" viewBox="0 0 22 14" fill="none" xmlns="http://www.w3.org/2000/svg">
<path d="M21.9185 7.26043C21.7453 7.51253 17.5817 13.4169 10.9999 13.4169C5.35226 13.4169 0.319682 7.54643 0.107928 7.29618C-0.0359761 7.12567 -0.0359761 6.87542 0.107928 6.70401C0.319682 6.45376 5.35226 0.583321 10.9999 0.583321C16.6476 0.583321 21.6802 6.45376 21.8919 6.70401C22.0249 6.86167 22.0368 7.08992 21.9185 7.26043ZM10.9999 1.49999C6.47247 1.49999 2.16771 5.81755 1.07414 7.00007C2.16591 8.18349 6.46607 12.5002 10.9999 12.5002C16.2974 12.5002 20.0366 8.18899 20.9496 7.02482C19.8954 5.8799 15.5659 1.49999 10.9999 1.49999Z" fill="white"/>
</svg>
