<svg width="26" height="22" viewBox="0 0 26 22" fill="none" xmlns="http://www.w3.org/2000/svg">
<g clip-path="url(#clip0_1_1775)">
<path d="M5.23803 8.26196H2.18512C1.76363 8.26196 1.42188 8.60367 1.42188 9.0252V21.2366C1.42188 21.6581 1.76358 21.9999 2.18512 21.9999H5.23798C5.65946 21.9999 6.00122 21.6582 6.00122 21.2366V9.02515C6.00122 8.60367 5.65956 8.26196 5.23803 8.26196Z" fill="white"/>
<path d="M24.3049 10.2852C24.1703 9.10125 23.0643 8.26209 21.8727 8.26209H15.9225C16.4281 7.35661 16.6996 4.79556 16.6875 3.74937C16.6676 2.01763 15.2335 0.629883 13.5017 0.629883H12.8719C12.45 0.629883 12.1086 0.971234 12.1086 1.39312C12.1086 3.15802 11.4214 6.34363 10.1253 7.63976C9.25296 8.51213 8.50719 8.82825 7.5293 9.31696V20.769C9.02648 21.2681 10.9274 22.0001 13.8248 22.0001H18.8174C20.4625 22.0001 21.7437 20.4765 21.1062 18.8667C22.0774 18.6021 22.7937 17.7114 22.7937 16.6575C22.7937 16.3601 22.7363 16.0754 22.6327 15.8138C24.2693 15.3679 24.8717 13.3471 23.7358 12.0782C24.1531 11.612 24.3833 10.9743 24.3049 10.2852Z" fill="white"/>
</g>
<defs>
<clipPath id="clip0_1_1775">
<rect width="26" height="22" fill="white"/>
</clipPath>
</defs>
</svg>
